<svg xmlns="http://www.w3.org/2000/svg" width="1em" height="1em" viewBox="0 0 592.709 592.709" class="prefix__icon prefix__layout prefix__layout-inflate" fill="#bdbec0" style="width:1em;height:1em"><path d="M442.029 347.604a234.38 234.38 0 0010.829-22.228c12.205-28.856 18.395-59.485 18.395-91.035s-6.188-62.178-18.395-91.035c-11.78-27.851-28.635-52.854-50.097-74.316s-46.466-38.317-74.316-50.097C299.589 6.689 268.96.5 237.411.5s-62.179 6.189-91.035 18.395C118.525 30.675 93.522 47.53 72.06 68.992c-21.461 21.462-38.317 46.465-50.097 74.316-12.206 28.857-18.395 59.485-18.395 91.034s6.188 62.178 18.394 91.035c11.78 27.852 28.635 52.854 50.097 74.316 21.462 21.462 46.465 38.317 74.316 50.097 28.857 12.205 59.486 18.395 91.035 18.395s62.178-6.188 91.035-18.395a234.189 234.189 0 0014.239-6.603L473.706 574.21c11.607 11.606 27.038 17.998 43.452 17.998s31.846-6.392 43.452-17.998l10.561-10.56c23.959-23.96 23.959-62.944.001-86.903L442.029 347.604zm-92.774 41.571a190.697 190.697 0 01-38.866 21.719c-22.486 9.306-47.13 14.451-72.979 14.451-105.488 0-191.002-85.515-191.002-191.003S131.922 43.34 237.41 43.34s191.003 85.515 191.003 191.002c0 29.135-6.534 56.74-18.2 81.447a190.96 190.96 0 01-23.239 37.346 192.148 192.148 0 01-37.719 36.04zm191.624 144.183l-10.561 10.56a18.55 18.55 0 01-13.159 5.451 18.555 18.555 0 01-13.16-5.451L379.873 419.792a235.815 235.815 0 0022.889-20.099 236.701 236.701 0 0014.674-16.097L540.879 507.04c7.267 7.268 7.267 19.05 0 26.318z"/><path d="M517.159 592.709c-16.547 0-32.104-6.444-43.806-18.145L342.587 443.797a236.135 236.135 0 01-13.947 6.454c-28.917 12.231-59.611 18.434-91.229 18.434-31.615 0-62.31-6.202-91.23-18.434-27.909-11.804-52.966-28.695-74.475-50.204-21.509-21.509-38.399-46.566-50.204-74.476C9.271 296.653 3.068 265.96 3.068 234.342c0-31.616 6.202-62.31 18.434-91.229 11.804-27.909 28.695-52.966 50.204-74.475 21.509-21.508 46.565-38.399 74.475-50.204C175.1 6.202 205.793 0 237.411 0c31.616 0 62.31 6.202 91.229 18.434 27.911 11.805 52.968 28.696 74.476 50.204 21.507 21.507 38.398 46.564 50.204 74.475 12.231 28.917 18.434 59.611 18.434 91.229 0 31.615-6.202 62.309-18.434 91.229a235.882 235.882 0 01-10.671 21.945l128.878 128.878c24.153 24.154 24.152 63.456-.001 87.61l-10.561 10.56c-11.7 11.701-27.258 18.145-43.806 18.145zM342.782 442.578L474.06 573.857c11.513 11.512 26.818 17.852 43.099 17.852 16.281 0 31.587-6.34 43.099-17.852l10.561-10.56c23.764-23.765 23.764-62.432.001-86.196l-129.41-129.41.183-.329a234.81 234.81 0 0010.806-22.18c12.18-28.797 18.355-59.359 18.355-90.84 0-31.483-6.176-62.046-18.355-90.84-11.755-27.792-28.574-52.742-49.989-74.158-21.416-21.416-46.366-38.235-74.157-49.99C299.455 7.176 268.892 1 237.411 1c-31.482 0-62.045 6.176-90.84 18.355-27.791 11.754-52.741 28.573-74.158 49.99s-38.236 46.368-49.99 74.158c-12.179 28.795-18.354 59.358-18.354 90.84 0 31.483 6.175 62.045 18.354 90.84 11.754 27.789 28.573 52.739 49.99 74.157 21.418 21.418 46.368 38.236 74.158 49.989 28.796 12.18 59.359 18.355 90.84 18.355 31.483 0 62.046-6.176 90.84-18.355a234.82 234.82 0 0014.208-6.588l.323-.163zm174.377 107.291a18.99 18.99 0 01-13.514-5.598L379.117 419.743l.451-.348a236.405 236.405 0 0022.84-20.056 237.41 237.41 0 0014.643-16.062l.351-.422 123.831 123.831c7.45 7.45 7.45 19.574 0 27.025l-10.561 10.56a18.984 18.984 0 01-13.513 5.598zm-136.53-130.028l123.724 123.724c3.422 3.421 7.97 5.305 12.807 5.305s9.385-1.884 12.806-5.305l10.561-10.56c7.061-7.062 7.061-18.551 0-25.611L417.469 384.338a238.477 238.477 0 01-14.354 15.709 237.376 237.376 0 01-22.486 19.794zm-143.22 6.004c-105.595 0-191.502-85.908-191.502-191.503S131.814 42.84 237.41 42.84s191.503 85.908 191.503 191.502c0 28.542-6.14 56.016-18.248 81.661a191.732 191.732 0 01-23.3 37.443 192.584 192.584 0 01-37.817 36.134 191.44 191.44 0 01-38.968 21.775c-23.232 9.615-47.85 14.49-73.171 14.49zm.001-382.005c-105.043 0-190.503 85.459-190.503 190.502 0 105.044 85.459 190.503 190.502 190.503 25.189 0 49.678-4.85 72.788-14.413a190.356 190.356 0 0038.765-21.662 191.608 191.608 0 0037.62-35.946 190.665 190.665 0 0023.179-37.248c12.045-25.509 18.152-52.84 18.152-81.233 0-105.044-85.46-190.503-190.503-190.503z"/></svg>