<svg xmlns="http://www.w3.org/2000/svg" viewBox="0 0 389.341 389.341"
  class="prefix__icon prefix__layout prefix__layout-inflate" width="1em" height="1em" fill="currentColor"
  style="width:1em;height:1em">
  <path
    d="M389.341 24.25c0-11.782-9.551-21.333-21.333-21.333H21.335c-4.393 0-8.68 1.357-12.273 3.884-9.637 6.778-11.954 20.086-5.176 29.723l125.695 178.702.353 130.007a41.307 41.307 0 006.936 22.797c12.652 18.979 38.294 24.107 57.273 11.455l44.894-29.929a42.667 42.667 0 0018.999-35.699l-.456-97.845L385.383 36.629a21.336 21.336 0 003.958-12.379zm-174.49 178.205l.52 111.599-42.776 28.518-.383-140.901L62.423 45.583h264.193L214.851 202.455z" />
</svg>