<svg width="79" height="33" viewBox="0 0 79 33" fill="none" xmlns="http://www.w3.org/2000/svg">
<path d="M0.769847 8.60049C0.759847 5.84071 0.669847 3.50242 0.249847 1.19424C0.179847 0.863064 0.0998475 0.541925 -0.000152519 0.220787C-0.0501525 4.61563e-06 0.0198475 -0.0401377 0.199847 -0.010031C1.10985 0.120431 1.99985 0.371321 2.81985 0.792815C3.42985 1.09388 3.71985 1.65587 3.73985 2.32826C3.80985 3.77338 3.69985 5.2185 3.62985 6.66362L3.54985 8.77109C3.53985 8.98184 3.49985 9.19259 3.48985 9.41337C3.46985 9.72447 3.50985 9.75458 3.77985 9.59401C4.54767 9.13072 5.39593 8.81744 6.27985 8.67074C9.41985 8.16896 12.7398 9.29294 14.4598 12.1029C15.3106 13.4697 15.6573 15.0924 15.4398 16.6892C15.2626 18.3797 14.464 19.9433 13.1998 21.0747C11.7621 22.3657 9.87715 23.0395 7.94985 22.9514C6.8412 22.9705 5.74141 22.7502 4.72512 22.3051C3.70884 21.8601 2.79985 21.2009 2.05985 20.3722C1.4184 19.6768 0.934375 18.8503 0.640948 17.9496C0.347521 17.0489 0.25163 16.0951 0.359847 15.1537C0.479847 13.9996 0.639847 12.8455 0.679847 11.6714C0.709847 10.5072 0.779847 9.33309 0.759847 8.59045L0.769847 8.60049ZM4.52985 15.4146C4.52985 16.5788 4.72985 17.502 5.19985 18.345C5.66985 19.2081 6.31985 19.9005 7.29985 20.1414C8.59985 20.4525 9.56985 19.8905 10.3098 18.897C10.9992 17.9072 11.3564 16.7227 11.3294 15.5155C11.3024 14.3082 10.8927 13.1409 10.1598 12.1832C9.01985 10.7782 7.20985 10.6779 5.93985 11.9423C5.04757 12.8773 4.54651 14.1201 4.53985 15.4146H4.52985ZM65.9498 9.23273C67.1098 9.2528 68.2598 9.13237 69.4099 9.01195C71.2099 8.84134 73.0098 8.61052 74.7999 8.25928C76.1398 7.98832 77.4799 7.67722 78.7498 7.13529C78.9498 7.04497 78.9998 7.10519 78.9898 7.29586C78.9668 8.13948 78.8185 8.97493 78.5499 9.77465C78.2598 10.5976 77.5498 10.8284 76.7798 10.9087C75.4598 11.0492 74.1199 11.1696 72.7898 11.29C72.1199 11.3502 71.4398 11.3904 70.7598 11.4406C70.6798 11.4406 70.5698 11.4004 70.5298 11.5008C70.4898 11.5811 70.5698 11.6413 70.6098 11.7015C71.504 12.8727 72.0173 14.2918 72.0798 15.7659C72.2262 17.4704 71.7616 19.1714 70.7698 20.5629C70.2113 21.3633 69.4733 22.0209 68.6153 22.4828C67.7573 22.9447 66.8032 23.198 65.8298 23.2223C64.8596 23.2994 63.8848 23.1492 62.9824 22.7834C62.08 22.4177 61.2746 21.8465 60.6298 21.1148C59.9477 20.3501 59.4375 19.4471 59.1338 18.467C58.8301 17.4869 58.7401 16.4528 58.8698 15.4347C58.985 13.854 59.6464 12.3633 60.7398 11.2198C61.3996 10.5115 62.2121 9.96424 63.1152 9.61982C64.0183 9.2754 64.9879 9.14299 65.9498 9.23273ZM62.3698 16.4282C62.3498 17.3314 62.6498 18.335 63.2898 19.2382C64.4099 20.7937 66.2098 20.884 67.4598 19.459C68.1787 18.5315 68.5674 17.3891 68.5638 16.214C68.5601 15.039 68.1645 13.899 67.4398 12.976C66.2598 11.6413 64.5398 11.6814 63.4298 13.0764C62.6852 14.0287 62.3087 15.2192 62.3698 16.4282ZM25.6998 17.3013H21.1498C20.8998 17.3013 20.7498 17.3214 20.8098 17.6626C20.9276 18.3111 21.2445 18.9064 21.7161 19.3653C22.1876 19.8241 22.7903 20.1235 23.4398 20.2217C24.6742 20.3833 25.9256 20.0987 26.9698 19.4188C27.4998 19.1178 28.0098 18.7665 28.4998 18.4153C28.7298 18.2447 28.8198 18.2848 28.9298 18.5156C29.1698 19.0074 29.4398 19.4891 29.6198 20.0109C29.7898 20.5328 29.7198 20.8238 29.2798 21.1449C28.3798 21.7973 27.4198 22.3793 26.3298 22.7105C24.6069 23.2967 22.7281 23.218 21.0598 22.4897C20.0892 22.0805 19.2384 21.4301 18.5875 20.5996C17.9367 19.7691 17.5073 18.786 17.3398 17.7429C16.971 15.967 17.1705 14.1196 17.9098 12.4642C18.3328 11.4811 19.0085 10.6285 19.8677 9.99371C20.7269 9.35889 21.7389 8.96466 22.7998 8.85138C24.1498 8.64063 25.4998 8.74099 26.7598 9.33309C27.5604 9.72846 28.2673 10.2913 28.8331 10.9837C29.3989 11.6761 29.8103 12.482 30.0398 13.3473C30.4069 14.5331 30.5891 15.7687 30.5798 17.0103C30.5798 17.2612 30.4998 17.3114 30.2698 17.3114H25.6998V17.3013ZM23.8198 14.5616H26.5798C26.8498 14.5717 26.8998 14.4713 26.8798 14.2304C26.8397 13.8204 26.7139 13.4234 26.5106 13.0655C26.3073 12.7075 26.031 12.3966 25.6998 12.1531C23.7198 10.6477 21.0998 12.2835 20.8198 14.1803C20.7698 14.5616 20.7598 14.5616 21.1598 14.5616H23.8198ZM44.2798 9.87501C44.2498 10.2463 44.0798 10.5775 43.9498 10.9187L36.4298 31.6321C36.3098 31.9834 36.1798 32.1239 35.7598 32.0837C34.9898 32.0235 34.2098 32.0034 33.4498 31.8629C33.2128 31.8282 32.985 31.7463 32.7798 31.6221C32.5698 31.4816 32.5098 31.2809 32.7098 31.1002C33.6498 30.2673 33.9898 29.0931 34.4598 27.9992C35.1598 26.3735 35.7398 24.6875 36.3398 23.0216C36.4298 22.8008 36.3798 22.6001 36.3098 22.3994C35.957 21.3304 35.5223 20.2903 35.0098 19.2884C33.6698 16.5788 32.1998 13.9294 30.6898 11.3101C30.5798 11.1094 30.5798 11.009 30.7198 10.8284C31.1198 10.3467 31.5298 9.86497 32.0298 9.48362C32.2098 9.35316 32.3998 9.22269 32.6098 9.12234C33.1698 8.84134 33.5498 8.98184 33.8198 9.54383L37.6498 17.4318L37.7798 17.6927C37.8398 17.773 37.8498 17.9235 37.9798 17.9135C38.0998 17.9035 38.1298 17.763 38.1598 17.6626L38.8098 15.6254C39.4898 13.4878 40.1698 11.3402 40.8298 9.19259C40.8998 8.96177 40.9998 8.89152 41.2298 8.89152C41.9898 8.90156 42.7298 8.89152 43.4598 9.09223C43.6498 9.15244 43.8298 9.22269 43.9898 9.33309C44.1898 9.46355 44.2998 9.63415 44.2898 9.87501H44.2798ZM51.6198 23.413C50.7287 23.4506 49.8389 23.3109 49.0018 23.0018C48.1647 22.6928 47.3968 22.2205 46.7424 21.6123C46.088 21.0041 45.56 20.2719 45.1889 19.4579C44.8177 18.644 44.6107 17.7644 44.5798 16.8698C44.4831 15.8976 44.5576 14.9158 44.7998 13.9695C45.1329 12.6502 45.8588 11.4641 46.8808 10.5694C47.9027 9.67474 49.1722 9.11393 50.5198 8.96177C53.0398 8.6306 55.1898 9.49365 57.1498 10.989C57.4698 11.2298 57.5198 11.571 57.4198 11.9223C57.2398 12.5746 56.8898 13.1466 56.5898 13.7387C56.4898 13.9394 56.3798 13.819 56.2798 13.7387C55.7398 13.3373 55.1798 12.966 54.5998 12.6348C53.7825 12.134 52.8556 11.8412 51.8998 11.7818C51.1362 11.713 50.3716 11.9029 49.7281 12.3213C49.0846 12.7397 48.5994 13.3624 48.3498 14.0899C48.0162 14.8532 47.871 15.6861 47.9267 16.5177C47.9824 17.3494 48.2374 18.1553 48.6698 18.8669C49.3698 20.0711 50.7698 20.7034 52.1498 20.5227C53.4217 20.316 54.6236 19.7991 55.6498 19.0174C55.8899 18.8669 56.1198 18.7063 56.3498 18.5357C56.4498 18.4554 56.5298 18.4454 56.5898 18.5859C56.8798 19.1679 57.2099 19.7199 57.3998 20.3521C57.5398 20.8238 57.4598 21.1249 57.0698 21.4059C55.9645 22.271 54.6903 22.8933 53.3298 23.2323C52.7299 23.3528 52.1298 23.4331 51.6298 23.413H51.6198Z" fill="#397F6E"/>
</svg>
